# xmcd CD database file
#
# Track frame offsets:
#	150
#	20588
#	36478
#	50530
#	82333
#	94068
#	117343
#	139465
#	154713
#	178233
#	193735
#	206960
#	225518
#	241630
#	279715
#	294540
#
# Disc length: 4074 seconds
#
# Revision: 4
# Processed by: cddbd v1.5.2PL0 Copyright (c) Steve Scherf et al.
# Submitted via: CDex 1.51
#
DISCID=f50fe810
DTITLE=B.B.King - The Best Of B.B.King - Best 16
DYEAR=1900
DGENRE=Blues
TTITLE0=Hummingbird
TTITLE1=Ain't Nobody Home
TTITLE2=Ask Me No Questions
TTITLE3=Sweet Sixteen
TTITLE4=Never Trust A Woman
TTITLE5=Don't Answer The Door
TTITLE6=Chains And Things
TTITLE7=Philadelphia
TTITLE8=Ghetto Woman
TTITLE9=Help The Poor
TTITLE10=I Got Some Help I Don't Need
TTITLE11=Guess Who
TTITLE12=Who Are You
TTITLE13=To Know You Is To Love You
TTITLE14=I Like To Live The Love
TTITLE15=How Blue Can You Get
EXTD=
EXTT0=
EXTT1=
EXTT2=
EXTT3=
EXTT4=
EXTT5=
EXTT6=
EXTT7=
EXTT8=
EXTT9=
EXTT10=
EXTT11=
EXTT12=
EXTT13=
EXTT14=
EXTT15=
PLAYORDER=
